<svg width="116" height="116" viewBox="0 0 116 116" fill="none" xmlns="http://www.w3.org/2000/svg">
<path d="M104.105 65.0179C107.951 39.4972 90.3802 15.6909 64.8596 11.8449C39.3389 7.99898 15.5326 25.5698 11.6866 51.0904C7.84067 76.611 25.4115 100.417 50.9321 104.263C76.4527 108.109 100.259 90.5385 104.105 65.0179Z" fill="#F7931D"/>
<path d="M0.566189 58.0685C0.557058 48.6338 2.87591 39.3426 7.31716 31.0187C11.7584 22.6947 18.1849 15.5951 26.0267 10.3494C33.8686 5.10361 42.8837 1.87374 52.2726 0.94609C61.6616 0.0184432 71.1344 1.42168 79.8512 5.03142C88.568 8.64115 96.2596 14.3459 102.244 21.6398C108.228 28.9337 112.32 37.5914 114.158 46.8455C115.995 56.0995 115.521 65.6639 112.777 74.6908C110.033 83.7176 105.104 91.928 98.4277 98.594L97.1706 97.3459C106.276 88.2499 111.945 76.2777 113.211 63.4699C114.477 50.6622 111.263 37.8116 104.115 27.1088C96.9671 16.4059 86.3288 8.51309 74.0132 4.77575C61.6976 1.03841 48.467 1.68783 36.5766 6.61335C24.6862 11.5389 14.872 20.4356 8.80687 31.7871C2.7417 43.1385 0.800987 56.2421 3.31552 68.8643C5.83005 81.4864 12.6442 92.8459 22.5965 101.006C32.5487 109.167 45.0231 113.623 57.8933 113.616V115.387C50.3641 115.393 42.9076 113.914 35.9503 111.036C28.993 108.157 22.6714 103.936 17.3471 98.6121C12.0227 93.2886 7.80006 86.9677 4.92064 80.0108C2.04123 73.054 0.561533 65.5977 0.566189 58.0685V58.0685Z" fill="black"/>
<path d="M112.738 96.3207C114.105 87.8651 108.358 79.9027 99.9025 78.5361C91.4469 77.1695 83.4845 82.9163 82.1179 91.3719C80.7514 99.8275 86.4982 107.79 94.9538 109.157C103.409 110.523 111.372 104.776 112.738 96.3207Z" fill="#FFAA00"/>
<path d="M96.0995 110.722C92.773 110.722 89.5212 109.735 86.7553 107.887C83.9893 106.039 81.8336 103.412 80.5606 100.339C79.2876 97.2654 78.9545 93.8836 79.6035 90.621C80.2524 87.3584 81.8543 84.3615 84.2065 82.0093C86.5587 79.657 89.5556 78.0552 92.8183 77.4062C96.0809 76.7572 99.4627 77.0903 102.536 78.3633C105.609 79.6363 108.236 81.7921 110.084 84.558C111.932 87.3239 112.919 90.5757 112.919 93.9023C112.919 98.363 111.147 102.641 107.993 105.795C104.838 108.95 100.56 110.722 96.0995 110.722V110.722ZM96.0995 79.7918C93.2982 79.7918 90.5599 80.6225 88.2307 82.1788C85.9015 83.7351 84.0861 85.9472 83.0141 88.5352C81.9421 91.1233 81.6616 93.9711 82.2081 96.7186C82.7546 99.466 84.1036 101.99 86.0844 103.971C88.0652 105.951 90.5889 107.3 93.3363 107.847C96.0838 108.393 98.9316 108.113 101.52 107.041C104.108 105.969 106.32 104.153 107.876 101.824C109.432 99.4951 110.263 96.7567 110.263 93.9554C110.263 90.199 108.771 86.5964 106.115 83.9402C103.458 81.284 99.8559 79.7918 96.0995 79.7918Z" fill="white"/>
<path d="M91.3903 98.8508C90.8453 98.8879 90.2997 98.7893 89.8022 98.5637C89.3047 98.3382 88.871 97.9927 88.5398 97.5583C87.9258 96.513 87.6021 95.3227 87.6021 94.1104C87.6021 92.8981 87.9258 91.7078 88.5398 90.6625C88.8946 90.2565 89.3321 89.9312 89.823 89.7083C90.3139 89.4854 90.8467 89.3701 91.3858 89.3701C91.9249 89.3701 92.4578 89.4854 92.9487 89.7083C93.4395 89.9312 93.877 90.2565 94.2318 90.6625C94.8522 91.7056 95.1796 92.8967 95.1796 94.1104C95.1796 95.324 94.8522 96.5152 94.2318 97.5583C93.9021 97.992 93.4698 98.3371 92.9739 98.5627C92.478 98.7882 91.9339 98.8872 91.3903 98.8508ZM90.0359 91.9018C89.4573 93.3204 89.4573 94.9092 90.0359 96.3279C90.16 96.5799 90.3523 96.7922 90.5909 96.9406C90.8295 97.0891 91.1048 97.1677 91.3858 97.1677C91.6668 97.1677 91.9422 97.0891 92.1808 96.9406C92.4194 96.7922 92.6116 96.5799 92.7358 96.3279C93.3144 94.9092 93.3144 93.3204 92.7358 91.9018C92.6116 91.6497 92.4194 91.4374 92.1808 91.289C91.9422 91.1406 91.6668 91.0619 91.3858 91.0619C91.1048 91.0619 90.8295 91.1406 90.5909 91.289C90.3523 91.4374 90.16 91.6497 90.0359 91.9018V91.9018Z" fill="white"/>
<path d="M96.613 91.3264V89.5559H102.225V90.9722L100.349 93.1056C101.007 93.1833 101.614 93.498 102.057 93.9909C102.454 94.4745 102.667 95.0827 102.659 95.7082C102.68 96.1346 102.602 96.5601 102.431 96.9516C102.261 97.343 102.003 97.69 101.677 97.9655C100.972 98.5348 100.085 98.8275 99.1802 98.7888C98.067 98.7524 96.9918 98.3754 96.0996 97.7088L96.9406 96.0888C97.6061 96.6121 98.4149 96.9208 99.2599 96.9741C99.6232 96.9895 99.9814 96.8837 100.278 96.6731C100.413 96.5709 100.521 96.4363 100.59 96.2815C100.66 96.1268 100.69 95.957 100.676 95.7879C100.679 95.6136 100.639 95.4414 100.559 95.2867C100.478 95.1321 100.36 95.0001 100.216 94.9026C99.842 94.6554 99.3974 94.5372 98.95 94.5662C98.5329 94.5886 98.1213 94.6722 97.7284 94.8141V93.3624L99.4989 91.2909L96.613 91.3264Z" fill="white"/>
<path d="M40.9687 75.6875H69.8437C70.0178 75.6875 70.1847 75.6183 70.3078 75.4953C70.4308 75.3722 70.5 75.2053 70.5 75.0312V69.3968L72.4289 71.3257C72.8135 71.7006 73.0986 72.1655 73.2584 72.6783C73.4558 73.359 73.8695 73.9568 74.437 74.3813C75.0044 74.8059 75.6948 75.034 76.4034 75.0312C76.481 75.0312 76.5591 75.0285 76.6376 75.023C77.4049 74.9688 78.1288 74.6468 78.6828 74.1133C79.2369 73.5797 79.5859 72.8685 79.6689 72.1038C79.752 71.3391 79.5637 70.5695 79.1371 69.9295C78.7105 69.2894 78.0727 68.8196 77.3349 68.602C76.8221 68.4422 76.3573 68.1571 75.9824 67.7725L74.0494 65.8396C74.3835 65.4646 74.5617 64.9763 74.5476 64.4743C74.5336 63.9723 74.3283 63.4947 73.9738 63.139L73.3972 62.5623L74.9019 61.0576C74.9628 60.9967 75.0112 60.9243 75.0441 60.8447C75.0771 60.7651 75.0941 60.6798 75.0941 60.5936C75.0941 60.5074 75.0771 60.4221 75.0441 60.3424C75.0112 60.2628 74.9628 60.1905 74.9019 60.1295L72.9331 58.1608C72.8722 58.0998 72.7998 58.0515 72.7202 58.0185C72.6406 57.9855 72.5552 57.9686 72.4691 57.9686C72.3829 57.9686 72.2975 57.9855 72.2179 58.0185C72.1383 58.0515 72.066 58.0998 72.005 58.1608L70.5 59.6656V43.5312C70.5 43.4451 70.483 43.3597 70.45 43.2801C70.4171 43.2005 70.3687 43.1281 70.3078 43.0672L63.7453 36.5047C63.6844 36.4438 63.612 36.3954 63.5324 36.3624C63.4528 36.3295 63.3674 36.3125 63.2812 36.3125H40.9687C40.7947 36.3125 40.6278 36.3816 40.5047 36.5047C40.3816 36.6278 40.3125 36.7947 40.3125 36.9687V75.0312C40.3125 75.2053 40.3816 75.3722 40.5047 75.4953C40.6278 75.6183 40.7947 75.6875 40.9687 75.6875V75.6875ZM76.964 69.8611C77.2914 69.9579 77.5881 70.1381 77.8248 70.3841C78.0615 70.6301 78.2302 70.9334 78.3144 71.2643C78.3985 71.5952 78.3952 71.9423 78.3047 72.2714C78.2142 72.6006 78.0397 72.9007 77.7983 73.1421C77.5569 73.3835 77.2569 73.558 76.9277 73.6485C76.5985 73.7389 76.2514 73.7423 75.9206 73.6581C75.5897 73.574 75.2864 73.4053 75.0404 73.1685C74.7944 72.9318 74.6142 72.6352 74.5174 72.3078C74.2956 71.5845 73.8967 70.9281 73.357 70.398L71.4281 68.4687L73.125 66.7718L75.054 68.7008C75.5842 69.2405 76.2407 69.6394 76.964 69.8611V69.8611ZM73.0456 64.0672C73.1685 64.1904 73.2375 64.3573 73.2375 64.5312C73.2375 64.7052 73.1685 64.8721 73.0456 64.9953L69.6515 68.3892C69.5283 68.5121 69.3615 68.5811 69.1875 68.5811C69.0135 68.5811 68.8467 68.5121 68.7235 68.3892L68.1468 67.8125L72.4687 63.4906L73.0456 64.0672ZM72.4687 59.553L73.5095 60.5937L65.25 68.8532L64.2093 67.8125L72.4687 59.553ZM63.9375 38.553L68.2595 42.875H63.9375V38.553ZM41.625 37.625H62.625V43.5312C62.625 43.7053 62.6941 43.8722 62.8172 43.9953C62.9403 44.1184 63.1072 44.1875 63.2812 44.1875H69.1875V60.9781L62.8172 67.3484C62.7562 67.4094 62.7079 67.4817 62.6749 67.5613C62.6419 67.641 62.625 67.7263 62.625 67.8125C62.625 67.8987 62.6419 67.984 62.6749 68.0636C62.7079 68.1433 62.7562 68.2156 62.8172 68.2765L64.7859 70.2453C64.8469 70.3062 64.9192 70.3546 64.9988 70.3876C65.0785 70.4205 65.1638 70.4375 65.25 70.4375C65.3362 70.4375 65.4215 70.4205 65.5011 70.3876C65.5808 70.3546 65.6531 70.3062 65.714 70.2453L67.2187 68.7406L67.7953 69.3172C67.978 69.5001 68.1951 69.6451 68.434 69.7439C68.6729 69.8427 68.929 69.8933 69.1875 69.8929V74.375H41.625V37.625Z" fill="white"/>
<path d="M50.1562 48.125H60.6562C60.8303 48.125 60.9972 48.0558 61.1203 47.9328C61.2434 47.8097 61.3125 47.6428 61.3125 47.4687V45.5C61.3125 45.3259 61.2434 45.159 61.1203 45.0359C60.9972 44.9129 60.8303 44.8437 60.6562 44.8437H60V42.875H60.6562C60.8041 42.875 60.9476 42.825 61.0635 42.7333C61.1794 42.6416 61.2609 42.5134 61.2949 42.3695C61.3289 42.2257 61.3133 42.0745 61.2506 41.9406C61.188 41.8067 61.082 41.6979 60.9498 41.6318L55.6998 39.0068C55.6086 38.9612 55.5081 38.9375 55.4062 38.9375C55.3044 38.9375 55.2039 38.9612 55.1127 39.0068L49.8627 41.6318C49.7305 41.6979 49.6245 41.8067 49.5619 41.9406C49.4992 42.0745 49.4836 42.2257 49.5176 42.3695C49.5516 42.5134 49.6331 42.6416 49.749 42.7333C49.8649 42.825 50.0084 42.875 50.1562 42.875H50.8125V44.8437H50.1562C49.9822 44.8437 49.8153 44.9129 49.6922 45.0359C49.5691 45.159 49.5 45.3259 49.5 45.5V47.4687C49.5 47.6428 49.5691 47.8097 49.6922 47.9328C49.8153 48.0558 49.9822 48.125 50.1562 48.125V48.125ZM58.6875 44.8437H57.375V42.875H58.6875V44.8437ZM56.0625 42.875V44.8437H54.75V42.875H56.0625ZM55.4062 40.3274L57.8763 41.5625H52.9362L55.4062 40.3274ZM52.125 42.875H53.4375V44.8437H52.125V42.875ZM50.8125 46.1562H60V46.8125H50.8125V46.1562Z" fill="white"/>
<path d="M42.9375 49.4375H67.875V50.75H42.9375V49.4375Z" fill="white"/>
<path d="M42.9375 52.0625H67.875V53.375H42.9375V52.0625Z" fill="white"/>
<path d="M42.9375 54.6875H67.875V56H42.9375V54.6875Z" fill="white"/>
<path d="M55.4063 59.9375C54.1083 59.9375 52.8395 60.3224 51.7603 61.0435C50.6811 61.7646 49.84 62.7895 49.3433 63.9886C48.8466 65.1878 48.7166 66.5073 48.9698 67.7803C49.2231 69.0533 49.8481 70.2226 50.7659 71.1404C51.6836 72.0582 52.853 72.6832 54.126 72.9364C55.399 73.1896 56.7185 73.0597 57.9176 72.563C59.1167 72.0663 60.1417 71.2251 60.8628 70.1459C61.5839 69.0667 61.9687 67.7979 61.9687 66.5C61.9668 64.7601 61.2747 63.0921 60.0445 61.8618C58.8142 60.6315 57.1461 59.9395 55.4063 59.9375V59.9375ZM55.4063 71.75C54.3679 71.75 53.3529 71.4421 52.4895 70.8652C51.6262 70.2883 50.9532 69.4684 50.5559 68.5091C50.1585 67.5498 50.0546 66.4942 50.2571 65.4758C50.4597 64.4574 50.9597 63.5219 51.6939 62.7877C52.4282 62.0535 53.3636 61.5534 54.382 61.3509C55.4004 61.1483 56.456 61.2523 57.4153 61.6496C58.3746 62.047 59.1946 62.7199 59.7715 63.5833C60.3483 64.4466 60.6562 65.4616 60.6562 66.5C60.6547 67.8919 60.1011 69.2264 59.1168 70.2106C58.1326 71.1948 56.7982 71.7484 55.4063 71.75V71.75Z" fill="white"/>
<path d="M54.0937 68.1969L52.589 66.6921L51.6609 67.6202L53.6296 69.589C53.6906 69.6499 53.7629 69.6983 53.8425 69.7313C53.9222 69.7642 54.0075 69.7812 54.0937 69.7812C54.1799 69.7812 54.2652 69.7642 54.3448 69.7313C54.4245 69.6983 54.4968 69.6499 54.5577 69.589L59.1515 64.9952L58.2234 64.0671L54.0937 68.1969Z" fill="white"/>
<path d="M42.9375 57.3125H67.875V58.625H42.9375V57.3125Z" fill="white"/>
</svg>
