<svg width="118" height="140" viewBox="0 0 118 140" fill="none" xmlns="http://www.w3.org/2000/svg">
<path d="M50.0859 131.609L51.3784 130.405L57.3271 136.796L63.2669 130.405L64.5682 131.609L57.3271 139.399L50.0859 131.609Z" fill="black"/>
<path d="M57.3271 104.122C83.1359 104.122 104.058 83.2003 104.058 57.3915C104.058 31.5827 83.1359 10.6605 57.3271 10.6605C31.5184 10.6605 10.5962 31.5827 10.5962 57.3915C10.5962 83.2003 31.5184 104.122 57.3271 104.122Z" fill="#F15921"/>
<path d="M95.5334 110.098C92.2068 110.098 88.955 109.111 86.1891 107.263C83.4232 105.415 81.2674 102.788 79.9944 99.7149C78.7214 96.6416 78.3883 93.2598 79.0373 89.9972C79.6863 86.7346 81.2881 83.7377 83.6404 81.3855C85.9926 79.0333 88.9895 77.4314 92.2521 76.7824C95.5147 76.1334 98.8965 76.4665 101.97 77.7395C105.043 79.0125 107.67 81.1683 109.518 83.9342C111.366 86.7001 112.353 89.9519 112.353 93.2785C112.353 97.7392 110.581 102.017 107.426 105.171C104.272 108.326 99.9941 110.098 95.5334 110.098ZM95.5334 79.168C92.7321 79.168 89.9937 79.9987 87.6645 81.555C85.3353 83.1113 83.5199 85.3234 82.4479 87.9114C81.3759 90.4995 81.0954 93.3473 81.6419 96.0948C82.1884 98.8422 83.5374 101.366 85.5182 103.347C87.499 105.328 90.0227 106.677 92.7702 107.223C95.5177 107.77 98.3655 107.489 100.954 106.417C103.542 105.345 105.754 103.53 107.31 101.2C108.866 98.8713 109.697 96.1329 109.697 93.3316C109.704 91.4671 109.343 89.6197 108.634 87.8951C107.925 86.1706 106.883 84.6029 105.567 83.2821C104.251 81.9612 102.688 80.9132 100.966 80.1981C99.244 79.483 97.3978 79.1149 95.5334 79.1149V79.168Z" fill="white"/>
<path d="M2.21235e-05 57.3915C-0.00765352 47.9572 2.31245 38.6667 6.75465 30.3436C11.1969 22.0206 17.6239 14.9221 25.4661 9.67748C33.3083 4.43284 42.3233 1.20404 51.712 0.277332C61.1007 -0.649372 70.573 0.754642 79.2892 4.36491C88.0053 7.97517 95.6962 13.6802 101.68 20.9741C107.664 28.2681 111.755 36.9257 113.592 46.1794C115.429 55.4332 114.954 64.9972 112.21 74.0236C109.466 83.0501 104.538 91.2601 97.8615 97.9258L96.6045 96.6777C105.71 87.5817 111.379 75.6095 112.645 62.8017C113.911 49.994 110.696 37.1435 103.549 26.4406C96.4009 15.7377 85.7626 7.84489 73.447 4.10755C61.1314 0.37021 47.9008 1.01964 36.0104 5.94516C24.1201 10.8707 14.3059 19.7674 8.2407 31.1189C2.17553 42.4703 0.23482 55.5739 2.74935 68.1961C5.26389 80.8182 12.078 92.1777 22.0303 100.338C31.9825 108.499 44.4569 112.955 57.3271 112.948H58.2123V137.478H56.4419V114.71C41.3889 114.491 27.0273 108.354 16.4644 97.6274C5.90149 86.9005 -0.0132009 72.446 2.21235e-05 57.3915Z" fill="black"/>
<path d="M106.471 104.2C112.511 98.161 112.511 88.3692 106.471 82.3298C100.432 76.2904 90.6402 76.2904 84.6008 82.3298C78.5614 88.3692 78.5614 98.161 84.6008 104.2C90.6402 110.24 100.432 110.24 106.471 104.2Z" fill="#F7931D"/>
<path d="M92.2315 98.1825C91.6879 98.219 91.1438 98.12 90.6478 97.8944C90.1519 97.6689 89.7197 97.3238 89.3899 96.8901C88.7696 95.847 88.4421 94.6558 88.4421 93.4422C88.4421 92.2285 88.7696 91.0373 89.3899 89.9942C89.7447 89.5883 90.1822 89.263 90.6731 89.0401C91.164 88.8172 91.6968 88.7019 92.2359 88.7019C92.775 88.7019 93.3079 88.8172 93.7988 89.0401C94.2896 89.263 94.7272 89.5883 95.0819 89.9942C95.696 91.0395 96.0197 92.2299 96.0197 93.4422C96.0197 94.6545 95.696 95.8448 95.0819 96.8901C94.7503 97.3239 94.3164 97.6689 93.8191 97.8944C93.3218 98.1199 92.7764 98.2189 92.2315 98.1825ZM90.886 91.2335C90.3074 92.6522 90.3074 94.241 90.886 95.6597C91.0007 95.9181 91.1901 96.1364 91.4299 96.2863C91.6697 96.4361 91.9489 96.5108 92.2315 96.5006C92.5149 96.509 92.7945 96.4337 93.0354 96.2842C93.2763 96.1346 93.4677 95.9174 93.5859 95.6597C94.1645 94.241 94.1645 92.6522 93.5859 91.2335C93.4697 90.9744 93.2786 90.7558 93.0373 90.606C92.796 90.4561 92.5154 90.3818 92.2315 90.3926C91.9487 90.3812 91.669 90.4554 91.4289 90.6054C91.1889 90.7554 90.9997 90.9743 90.886 91.2335Z" fill="white"/>
<path d="M96.9319 88.9054H100.641V98.0763H98.6669V90.6227H96.8965L96.9319 88.9054Z" fill="white"/>
<g clip-path="url(#clip0)">
<path d="M75.2457 55.3872C75.5885 55.3872 75.867 55.1087 75.867 54.7656V45.0167C75.867 44.2287 75.2258 43.5875 74.4375 43.5875H72V41.6617C72 40.8728 71.3594 40.2323 70.5705 40.2323H68.0532V38.3058C68.0532 37.5179 67.4117 36.8763 66.6237 36.8763H49.4686C49.1255 36.8763 48.847 37.1548 48.847 37.4977C48.847 37.8409 49.1255 38.1193 49.4686 38.1193H66.6237C66.7263 38.1193 66.8102 38.2029 66.8102 38.3058V70.736C66.8102 70.8386 66.7263 70.9222 66.6237 70.9222C65.0815 70.9222 45.2485 70.9222 44.457 70.9222C44.3542 70.9222 44.2706 70.8386 44.2706 70.736V38.3058C44.2706 38.2029 44.3542 38.1193 44.457 38.1193H46.9827C47.3256 38.1193 47.604 37.8409 47.604 37.4977C47.604 37.1548 47.3256 36.8763 46.9827 36.8763H44.457C43.6691 36.8763 43.0276 37.5179 43.0276 38.3058V70.736C43.0276 71.524 43.6691 72.1651 44.457 72.1651H46.9753V74.091C46.9753 74.8799 47.6156 75.5204 48.4038 75.5204H50.8417V77.4469C50.8417 78.2348 51.4829 78.8763 52.2708 78.8763H74.4375C75.2258 78.8763 75.867 78.2348 75.867 77.4469V57.2515C75.867 56.9086 75.5885 56.6302 75.2457 56.6302C74.9018 56.6302 74.624 56.9086 74.624 57.2515V77.4469C74.624 77.5497 74.5404 77.6334 74.4375 77.6334H52.2708C52.1683 77.6334 52.0847 77.5497 52.0847 77.4469V75.5204H70.5705C71.3594 75.5204 72 74.8799 72 74.091V65.4963C72 65.1534 71.7222 64.8749 71.3783 64.8749C71.0352 64.8749 70.757 65.1534 70.757 65.4963V74.091C70.757 74.1938 70.674 74.2775 70.5705 74.2775C69.9793 74.2775 49.0014 74.2775 48.4038 74.2775C48.301 74.2775 48.218 74.1938 48.218 74.091V72.1651H66.6237C67.4117 72.1651 68.0532 71.524 68.0532 70.736C68.0532 69.8285 68.0532 42.9117 68.0532 41.4752H70.5705C70.674 41.4752 70.757 41.5589 70.757 41.6617V44.8305V63.0107C70.757 63.3545 71.0352 63.632 71.3783 63.632C71.7222 63.632 72 63.3545 72 63.0107V44.8305H74.4375C74.5404 44.8305 74.624 44.9141 74.624 45.0167V54.7656C74.624 55.1087 74.9018 55.3872 75.2457 55.3872Z" fill="white"/>
<path d="M59.047 43.0287C59.047 41.0952 57.474 39.5222 55.5405 39.5222C53.6069 39.5222 52.0339 41.0952 52.0339 43.0287C52.0339 44.9622 53.6069 46.5349 55.5405 46.5349C57.474 46.5349 59.047 44.9622 59.047 43.0287ZM53.2769 43.0287C53.2769 41.7803 54.2924 40.7652 55.5405 40.7652C56.7885 40.7652 57.804 41.7806 57.804 43.0287C57.804 44.2768 56.7885 45.2923 55.5405 45.2923C54.2924 45.2923 53.2769 44.2768 53.2769 43.0287Z" fill="white"/>
<path d="M64.0205 43.6501C64.364 43.6501 64.6421 43.3719 64.6421 43.0287C64.6421 42.6852 64.364 42.4071 64.0205 42.4071H61.1064C60.7632 42.4071 60.4851 42.6852 60.4851 43.0287C60.4851 43.3719 60.7632 43.6501 61.1064 43.6501H64.0205Z" fill="white"/>
<path d="M49.9746 42.4071H47.0606C46.7174 42.4071 46.439 42.6852 46.439 43.0287C46.439 43.3719 46.7174 43.6501 47.0606 43.6501H49.9746C50.3178 43.6501 50.596 43.3719 50.596 43.0287C50.596 42.6852 50.3178 42.4071 49.9746 42.4071Z" fill="white"/>
<path d="M47.8757 48.9273C47.8757 49.2705 48.1539 49.5486 48.4971 49.5486H62.584C62.9272 49.5486 63.2053 49.2705 63.2053 48.9273C63.2053 48.5838 62.9272 48.3057 62.584 48.3057H48.4971C48.1539 48.3057 47.8757 48.5838 47.8757 48.9273Z" fill="white"/>
<path d="M62.5837 51.3193H48.4971C48.1539 51.3193 47.8757 51.5975 47.8757 51.9407C47.8757 52.2838 48.1539 52.562 48.4971 52.562H62.5837C62.9272 52.562 63.2053 52.2838 63.2053 51.9407C63.2053 51.5975 62.9272 51.3193 62.5837 51.3193Z" fill="white"/>
<path d="M62.5837 54.3326H48.4971C48.1539 54.3326 47.8757 54.6108 47.8757 54.954C47.8757 55.2975 48.1539 55.5756 48.4971 55.5756H62.5837C62.9272 55.5756 63.2053 55.2975 63.2053 54.954C63.2053 54.6108 62.9272 54.3326 62.5837 54.3326Z" fill="white"/>
<path d="M62.5837 57.3461H48.4971C48.1539 57.3461 47.8757 57.6242 47.8757 57.9677C47.8757 58.3109 48.1539 58.589 48.4971 58.589H62.5837C62.9272 58.589 63.2053 58.3109 63.2053 57.9677C63.2053 57.6242 62.9272 57.3461 62.5837 57.3461Z" fill="white"/>
<path d="M62.5837 60.3597H48.4971C48.1539 60.3597 47.8757 60.6379 47.8757 60.9814C47.8757 61.3246 48.1539 61.6027 48.4971 61.6027H62.5837C62.9272 61.6027 63.2053 61.3246 63.2053 60.9814C63.2053 60.6379 62.9272 60.3597 62.5837 60.3597Z" fill="white"/>
<path d="M62.5837 63.1927H48.4971C48.1539 63.1927 47.8757 63.4709 47.8757 63.8144C47.8757 64.1576 48.1539 64.4357 48.4971 64.4357H62.5837C62.9272 64.4357 63.2053 64.1576 63.2053 63.8144C63.2053 63.4709 62.9272 63.1927 62.5837 63.1927Z" fill="white"/>
<path d="M62.5837 66.3827H48.4971C48.1539 66.3827 47.8757 66.6608 47.8757 67.0043C47.8757 67.3475 48.1539 67.6257 48.4971 67.6257H62.5837C62.9272 67.6257 63.2053 67.3475 63.2053 67.0043C63.2053 66.6608 62.9272 66.3827 62.5837 66.3827Z" fill="white"/>
</g>
<defs>
<clipPath id="clip0">
<rect width="42" height="42" fill="white" transform="translate(38.4338 36.8763)"/>
</clipPath>
</defs>
</svg>
