<svg width="116" height="139" viewBox="0 0 116 139" fill="none" xmlns="http://www.w3.org/2000/svg">
<path d="M104.093 64.3528C107.939 38.8322 90.3682 15.0259 64.8476 11.1799C39.327 7.33394 15.5206 24.9047 11.6747 50.4253C7.82871 75.946 25.3995 99.7523 50.9201 103.598C76.4407 107.444 100.247 89.8734 104.093 64.3528Z" fill="#FFAA00"/>
<path d="M51 131.204L52.2924 130L58.2411 136.391L64.181 130L65.4823 131.204L58.2411 138.994L51 131.204Z" fill="black"/>
<path d="M0.566184 57.3915C0.558509 47.9572 2.87861 38.6667 7.32081 30.3437C11.763 22.0206 18.1901 14.9221 26.0323 9.67749C33.8744 4.43284 42.8895 1.20404 52.2781 0.277333C61.6668 -0.649371 71.1391 0.754637 79.8553 4.3649C88.5715 7.97516 96.2623 13.6802 102.246 20.9741C108.23 28.2681 112.321 36.9257 114.158 46.1794C115.995 55.4332 115.521 64.9972 112.777 74.0236C110.033 83.0501 105.104 91.2601 98.4277 97.9258L97.1706 96.6777C106.276 87.5817 111.945 75.6095 113.211 62.8017C114.477 49.994 111.263 37.1435 104.115 26.4406C96.9671 15.7377 86.3288 7.84488 74.0132 4.10754C61.6976 0.370204 48.467 1.01965 36.5766 5.94516C24.6862 10.8707 14.872 19.7674 8.80686 31.1189C2.74169 42.4703 0.800982 55.5739 3.31552 68.1961C5.83005 80.8182 12.6442 92.1777 22.5964 100.338C32.5487 108.499 45.0231 112.955 57.8933 112.948H58.7785V137.478H57.008V114.71C41.955 114.491 27.5934 108.354 17.0305 97.6274C6.46766 86.9005 0.552961 72.4461 0.566184 57.3915V57.3915Z" fill="black"/>
<path d="M111.375 95.7427C112.736 87.3108 107.004 79.3721 98.5723 78.0109C90.1404 76.6498 82.2017 82.3817 80.8405 90.8136C79.4794 99.2454 85.2113 107.184 93.6432 108.545C102.075 109.906 110.014 104.175 111.375 95.7427Z" fill="#F15921"/>
<path d="M96.0995 110.053C92.773 110.053 89.5212 109.067 86.7553 107.219C83.9893 105.371 81.8336 102.744 80.5606 99.6705C79.2876 96.5972 78.9545 93.2154 79.6035 89.9528C80.2524 86.6902 81.8543 83.6933 84.2065 81.341C86.5587 78.9888 89.5556 77.387 92.8183 76.738C96.0809 76.089 99.4627 76.4221 102.536 77.6951C105.609 78.9681 108.236 81.1239 110.084 83.8898C111.932 86.6557 112.919 89.9075 112.919 93.234C112.919 97.6948 111.147 101.973 107.993 105.127C104.838 108.281 100.56 110.053 96.0995 110.053V110.053ZM96.0995 79.1236C93.2982 79.1236 90.5599 79.9543 88.2307 81.5106C85.9015 83.0669 84.0861 85.2789 83.0141 87.867C81.9421 90.4551 81.6616 93.3029 82.2081 96.0503C82.7546 98.7978 84.1036 101.322 86.0844 103.302C88.0652 105.283 90.5889 106.632 93.3363 107.179C96.0838 107.725 98.9316 107.445 101.52 106.373C104.108 105.301 106.32 103.485 107.876 101.156C109.432 98.8268 110.263 96.0885 110.263 93.2872C110.263 89.5307 108.771 85.9282 106.115 83.272C103.458 80.6158 99.8559 79.1236 96.0995 79.1236Z" fill="white"/>
<path d="M91.7176 98.1826C91.174 98.219 90.6299 98.12 90.1339 97.8944C89.638 97.6689 89.2058 97.3238 88.876 96.8901C88.2557 95.847 87.9282 94.6559 87.9282 93.4422C87.9282 92.2286 88.2557 91.0374 88.876 89.9942C89.2308 89.5883 89.6683 89.263 90.1592 89.0401C90.6501 88.8172 91.1829 88.7019 91.722 88.7019C92.2611 88.7019 92.794 88.8172 93.2849 89.0401C93.7757 89.263 94.2132 89.5883 94.568 89.9942C95.1821 91.0395 95.5058 92.2299 95.5058 93.4422C95.5058 94.6545 95.1821 95.8448 94.568 96.8901C94.2363 97.3239 93.8025 97.6689 93.3052 97.8944C92.8078 98.1199 92.2625 98.2189 91.7176 98.1826V98.1826ZM90.4163 91.2159C89.8377 92.6345 89.8377 94.2233 90.4163 95.642C90.5241 95.9087 90.7106 96.1363 90.951 96.2945C91.1914 96.4526 91.4742 96.5338 91.7619 96.5272C92.0502 96.5319 92.3334 96.4501 92.5748 96.2923C92.8162 96.1345 93.0048 95.908 93.1163 95.642C93.6948 94.2233 93.6948 92.6345 93.1163 91.2159C92.9981 90.9581 92.8066 90.7409 92.5657 90.5914C92.3249 90.4418 92.0453 90.3665 91.7619 90.3749C91.4793 90.3647 91.2001 90.4394 90.9603 90.5893C90.7205 90.7391 90.531 90.9574 90.4163 91.2159Z" fill="white"/>
<path d="M100.588 92.4817C100.798 92.2092 100.918 91.8783 100.933 91.5345C100.938 91.3921 100.913 91.2502 100.861 91.1176C100.809 90.9849 100.731 90.8643 100.631 90.7631C100.53 90.662 100.41 90.5824 100.278 90.5293C100.146 90.4763 100.004 90.4508 99.8618 90.4545C99.2864 90.4545 98.7375 90.8706 98.2241 91.6938L96.5864 90.7201C96.9446 90.1251 97.4242 89.6123 97.9939 89.2152C98.5793 88.8505 99.2613 88.6716 99.9503 88.7018C100.712 88.6913 101.452 88.9588 102.031 89.4542C102.326 89.7059 102.559 90.0219 102.712 90.378C102.866 90.7341 102.935 91.1207 102.916 91.5079C102.916 91.9823 102.794 92.4487 102.562 92.8623C102.184 93.4658 101.735 94.0216 101.225 94.5177L99.5785 96.235H103.199V98.0763H96.7281V96.5271L99.3837 93.7741C99.8173 93.3745 100.22 92.9424 100.588 92.4817V92.4817Z" fill="white"/>
<path d="M69.9511 64.3972L66.3527 67.9956L64.4882 66.1126C64.4427 66.0667 64.3886 66.0302 64.329 66.0051C64.2694 65.9801 64.2055 65.9671 64.1409 65.9668C64.0762 65.9664 64.0122 65.9789 63.9523 66.0033C63.8925 66.0277 63.838 66.0637 63.7921 66.1092C63.7462 66.1547 63.7097 66.2088 63.6846 66.2684C63.6596 66.328 63.6466 66.3919 63.6462 66.4566C63.6459 66.5212 63.6583 66.5853 63.6828 66.6451C63.7072 66.7049 63.7432 66.7594 63.7887 66.8053L66.0013 69.0396C66.0469 69.0857 66.1012 69.1223 66.161 69.1473C66.2208 69.1723 66.285 69.1853 66.3498 69.1854H66.351C66.4815 69.1854 66.6067 69.1336 66.699 69.0413L70.6471 65.0932C70.6938 65.0478 70.731 64.9935 70.7566 64.9335C70.7822 64.8735 70.7956 64.809 70.796 64.7438C70.7965 64.6787 70.7839 64.614 70.7592 64.5537C70.7345 64.4934 70.698 64.4386 70.6519 64.3925C70.6058 64.3464 70.551 64.3099 70.4907 64.2851C70.4304 64.2604 70.3657 64.2479 70.3005 64.2483C70.2353 64.2487 70.1709 64.2621 70.1109 64.2877C70.0509 64.3132 69.9966 64.3505 69.9511 64.3972V64.3972Z" fill="white"/>
<path d="M67.2187 58.0239C66.3856 58.0235 65.5568 58.1431 64.7578 58.3792V39.5669C64.7567 38.5665 64.3587 37.6073 63.6513 36.8999C62.9439 36.1925 61.9848 35.7946 60.9844 35.7935H47.8594C46.8589 35.7946 45.8998 36.1925 45.1924 36.8999C44.485 37.6073 44.0871 38.5665 44.0859 39.5669V68.2778C44.0871 69.2782 44.485 70.2374 45.1924 70.9448C45.8998 71.6522 46.8589 72.0501 47.8594 72.0513H60.355C61.2604 73.2166 62.4475 74.1323 63.8045 74.7121C65.1615 75.2919 66.6438 75.5167 68.1117 75.3654C69.5797 75.2141 70.9849 74.6916 72.1951 73.8472C73.4053 73.0027 74.3807 71.8641 75.0292 70.5386C75.6778 69.2131 75.9783 67.7442 75.9025 66.2705C75.8266 64.7968 75.3768 63.3666 74.5955 62.1147C73.8141 60.8628 72.727 59.8304 71.4365 59.1147C70.1459 58.399 68.6944 58.0237 67.2187 58.0239ZM47.8594 36.7778H60.9844C61.7238 36.7787 62.4327 37.0728 62.9556 37.5956C63.4785 38.1185 63.7726 38.8274 63.7734 39.5669V40.7153H62.625C62.4945 40.7153 62.3693 40.7672 62.277 40.8595C62.1847 40.9518 62.1328 41.077 62.1328 41.2075C62.1328 41.3381 62.1847 41.4632 62.277 41.5555C62.3693 41.6478 62.4945 41.6997 62.625 41.6997H63.7734V58.7364C62.8784 59.1245 62.0549 59.6601 61.3371 60.3208H60.2297C60.0991 60.3208 59.974 60.3726 59.8817 60.4649C59.7893 60.5573 59.7375 60.6824 59.7375 60.813C59.7375 60.9435 59.7893 61.0687 59.8817 61.161C59.974 61.2533 60.0991 61.3052 60.2297 61.3052H60.4198C59.5243 62.4251 58.9209 63.7499 58.6636 65.1606H45.0703V41.6997H58.4414C58.5719 41.6997 58.6971 41.6478 58.7894 41.5555C58.8817 41.4632 58.9336 41.3381 58.9336 41.2075C58.9336 41.077 58.8817 40.9518 58.7894 40.8595C58.6971 40.7672 58.5719 40.7153 58.4414 40.7153H45.0703V39.5669C45.0711 38.8274 45.3652 38.1185 45.8881 37.5956C46.411 37.0728 47.1199 36.7787 47.8594 36.7778V36.7778ZM47.8594 71.0669C47.1199 71.0661 46.411 70.7719 45.8881 70.2491C45.3652 69.7262 45.0711 69.0173 45.0703 68.2778V66.145H58.5429C58.5304 66.3349 58.5234 66.5262 58.5234 66.7192C58.5216 68.2461 58.9244 69.7462 59.6907 71.0669H47.8594ZM67.2187 74.4302C66.0024 74.43 64.8034 74.1419 63.7199 73.5894C62.6363 73.0369 61.6989 72.2357 60.9844 71.2514V71.0669H60.8538C59.8402 69.5865 59.3756 67.7984 59.5403 66.0118C59.7051 64.2253 60.4888 62.5524 61.7561 61.2823C61.8271 61.2596 61.892 61.2212 61.946 61.1699C61.9999 61.1186 62.0416 61.0558 62.0678 60.9861C62.998 60.1504 64.1175 59.5535 65.3297 59.2469C66.542 58.9403 67.8106 58.9332 69.0263 59.2261C70.2419 59.5191 71.368 60.1034 72.3075 60.9285C73.247 61.7537 73.9717 62.795 74.419 63.9627C74.8664 65.1303 75.023 66.3893 74.8754 67.631C74.7278 68.8727 74.2804 70.0598 73.5717 71.09C72.8631 72.1202 71.9144 72.9626 70.8077 73.5445C69.7009 74.1264 68.4692 74.4304 67.2187 74.4302Z" fill="white"/>
<path d="M60.0569 41.6997H60.9688C61.0994 41.6997 61.2245 41.6479 61.3169 41.5555C61.4092 41.4632 61.461 41.3381 61.461 41.2075C61.461 41.077 61.4092 40.9518 61.3169 40.8595C61.2245 40.7672 61.0994 40.7153 60.9688 40.7153H60.0569C59.9263 40.7153 59.8012 40.7672 59.7089 40.8595C59.6166 40.9518 59.5647 41.077 59.5647 41.2075C59.5647 41.3381 59.6166 41.4632 59.7089 41.5555C59.8012 41.6479 59.9263 41.6997 60.0569 41.6997Z" fill="white"/>
<path d="M54.4219 66.8833C54.0812 66.8833 53.7481 66.9843 53.4648 67.1736C53.1815 67.3629 52.9607 67.632 52.8303 67.9467C52.7 68.2615 52.6659 68.6079 52.7323 68.942C52.7988 69.2762 52.9629 69.5831 53.2038 69.8241C53.4447 70.065 53.7516 70.229 54.0858 70.2955C54.42 70.362 54.7663 70.3279 55.0811 70.1975C55.3959 70.0671 55.6649 69.8463 55.8542 69.563C56.0435 69.2797 56.1445 68.9467 56.1445 68.606C56.144 68.1492 55.9624 67.7114 55.6394 67.3884C55.3165 67.0655 54.8786 66.8838 54.4219 66.8833V66.8833ZM54.4219 69.3442C54.2759 69.3442 54.1331 69.3009 54.0117 69.2198C53.8903 69.1387 53.7957 69.0234 53.7398 68.8885C53.6839 68.7536 53.6693 68.6051 53.6978 68.4619C53.7263 68.3187 53.7966 68.1872 53.8998 68.0839C54.0031 67.9807 54.1346 67.9104 54.2778 67.8819C54.4211 67.8534 54.5695 67.868 54.7044 67.9239C54.8393 67.9798 54.9546 68.0744 55.0357 68.1958C55.1169 68.3172 55.1602 68.4599 55.1602 68.606C55.1599 68.8017 55.0821 68.9894 54.9437 69.1278C54.8053 69.2662 54.6176 69.344 54.4219 69.3442V69.3442Z" fill="white"/>
<path d="M47.2358 47.5239H49.9921C50.1226 47.5239 50.2478 47.4721 50.3401 47.3798C50.4324 47.2875 50.4843 47.1623 50.4843 47.0317C50.4843 46.9012 50.4324 46.776 50.3401 46.6837C50.2478 46.5914 50.1226 46.5396 49.9921 46.5396H47.2358C47.1053 46.5396 46.9801 46.5914 46.8878 46.6837C46.7955 46.776 46.7437 46.9012 46.7437 47.0317C46.7437 47.1623 46.7955 47.2875 46.8878 47.3798C46.9801 47.4721 47.1053 47.5239 47.2358 47.5239Z" fill="white"/>
<path d="M52.2563 47.5239H54.0282C54.1588 47.5239 54.2839 47.4721 54.3763 47.3798C54.4686 47.2875 54.5204 47.1623 54.5204 47.0317C54.5204 46.9012 54.4686 46.776 54.3763 46.6837C54.2839 46.5914 54.1588 46.5396 54.0282 46.5396H52.2563C52.1258 46.5396 52.0006 46.5914 51.9083 46.6837C51.816 46.776 51.7642 46.9012 51.7642 47.0317C51.7642 47.1623 51.816 47.2875 51.9083 47.3798C52.0006 47.4721 52.1258 47.5239 52.2563 47.5239V47.5239Z" fill="white"/>
<path d="M56.3906 47.0317C56.3906 47.1623 56.4425 47.2875 56.5348 47.3798C56.6271 47.4721 56.7523 47.5239 56.8828 47.5239H61.6078C61.7384 47.5239 61.8635 47.4721 61.9558 47.3798C62.0481 47.2875 62.1 47.1623 62.1 47.0317C62.1 46.9012 62.0481 46.776 61.9558 46.6837C61.8635 46.5914 61.7384 46.5396 61.6078 46.5396H56.8828C56.7523 46.5396 56.6271 46.5914 56.5348 46.6837C56.4425 46.776 56.3906 46.9012 56.3906 47.0317V47.0317Z" fill="white"/>
<path d="M47.2358 52.1177H51.9608C52.0914 52.1177 52.2166 52.0658 52.3089 51.9735C52.4012 51.8812 52.453 51.756 52.453 51.6255C52.453 51.495 52.4012 51.3698 52.3089 51.2775C52.2166 51.1852 52.0914 51.1333 51.9608 51.1333H47.2358C47.1053 51.1333 46.9801 51.1852 46.8878 51.2775C46.7955 51.3698 46.7437 51.495 46.7437 51.6255C46.7437 51.756 46.7955 51.8812 46.8878 51.9735C46.9801 52.0658 47.1053 52.1177 47.2358 52.1177V52.1177Z" fill="white"/>
<path d="M56.9813 52.1177C57.1119 52.1177 57.2371 52.0658 57.3294 51.9735C57.4217 51.8812 57.4735 51.756 57.4735 51.6255C57.4735 51.495 57.4217 51.3698 57.3294 51.2775C57.2371 51.1852 57.1119 51.1333 56.9813 51.1333H54.2251C54.0946 51.1333 53.9694 51.1852 53.8771 51.2775C53.7848 51.3698 53.7329 51.495 53.7329 51.6255C53.7329 51.756 53.7848 51.8812 53.8771 51.9735C53.9694 52.0658 54.0946 52.1177 54.2251 52.1177H56.9813Z" fill="white"/>
<path d="M61.6078 51.1333H59.8359C59.7054 51.1333 59.5802 51.1852 59.4879 51.2775C59.3956 51.3698 59.3438 51.495 59.3438 51.6255C59.3438 51.756 59.3956 51.8812 59.4879 51.9735C59.5802 52.0658 59.7054 52.1177 59.8359 52.1177H61.6078C61.7384 52.1177 61.8635 52.0658 61.9558 51.9735C62.0482 51.8812 62.1 51.756 62.1 51.6255C62.1 51.495 62.0482 51.3698 61.9558 51.2775C61.8635 51.1852 61.7384 51.1333 61.6078 51.1333V51.1333Z" fill="white"/>
<path d="M48.4171 55.7271H47.2358C47.1053 55.7271 46.9801 55.7789 46.8878 55.8712C46.7955 55.9635 46.7437 56.0887 46.7437 56.2192C46.7437 56.3498 46.7955 56.475 46.8878 56.5673C46.9801 56.6596 47.1053 56.7114 47.2358 56.7114H48.4171C48.5476 56.7114 48.6728 56.6596 48.7651 56.5673C48.8574 56.475 48.9093 56.3498 48.9093 56.2192C48.9093 56.0887 48.8574 55.9635 48.7651 55.8712C48.6728 55.7789 48.5476 55.7271 48.4171 55.7271Z" fill="white"/>
<path d="M53.4374 55.7271H50.6812C50.5506 55.7271 50.4254 55.7789 50.3331 55.8712C50.2408 55.9635 50.189 56.0887 50.189 56.2192C50.189 56.3498 50.2408 56.475 50.3331 56.5673C50.4254 56.6596 50.5506 56.7114 50.6812 56.7114H53.4374C53.5679 56.7114 53.6931 56.6596 53.7854 56.5673C53.8777 56.475 53.9296 56.3498 53.9296 56.2192C53.9296 56.0887 53.8777 55.9635 53.7854 55.8712C53.6931 55.7789 53.5679 55.7271 53.4374 55.7271Z" fill="white"/>
<path d="M61.6079 55.7271H56.2922C56.1617 55.7271 56.0365 55.7789 55.9442 55.8712C55.8519 55.9635 55.8 56.0887 55.8 56.2192C55.8 56.3498 55.8519 56.475 55.9442 56.5673C56.0365 56.6596 56.1617 56.7114 56.2922 56.7114H61.6079C61.7384 56.7114 61.8636 56.6596 61.9559 56.5673C62.0482 56.475 62.1001 56.3498 62.1001 56.2192C62.1001 56.0887 62.0482 55.9635 61.9559 55.8712C61.8636 55.7789 61.7384 55.7271 61.6079 55.7271Z" fill="white"/>
<path d="M48.4171 60.3208H47.2358C47.1053 60.3208 46.9801 60.3727 46.8878 60.465C46.7955 60.5573 46.7437 60.6825 46.7437 60.813C46.7437 60.9435 46.7955 61.0687 46.8878 61.161C46.9801 61.2533 47.1053 61.3052 47.2358 61.3052H48.4171C48.5476 61.3052 48.6728 61.2533 48.7651 61.161C48.8574 61.0687 48.9093 60.9435 48.9093 60.813C48.9093 60.6825 48.8574 60.5573 48.7651 60.465C48.6728 60.3727 48.5476 60.3208 48.4171 60.3208Z" fill="white"/>
<path d="M57.3749 60.3208H50.6812C50.5506 60.3208 50.4254 60.3727 50.3331 60.465C50.2408 60.5573 50.189 60.6825 50.189 60.813C50.189 60.9435 50.2408 61.0687 50.3331 61.161C50.4254 61.2533 50.5506 61.3052 50.6812 61.3052H57.3749C57.5054 61.3052 57.6306 61.2533 57.7229 61.161C57.8152 61.0687 57.8671 60.9435 57.8671 60.813C57.8671 60.6825 57.8152 60.5573 57.7229 60.465C57.6306 60.3727 57.5054 60.3208 57.3749 60.3208V60.3208Z" fill="white"/>
</svg>
